<svg role="img" viewBox="0 0 24 24" xmlns="http://www.w3.org/2000/svg" fill="currentColor">
  <title>Moltbot</title>
  <path d="M4.5 8.5c-.4-.8-.5-1.8-.3-2.7.3-1.2 1.1-2.1 2.2-2.5.5-.2 1-.2 1.4.1.3.2.4.6.2 1-.2.3-.5.5-.8.6-.6.2-1 .6-1.2 1.2-.1.4-.1.9.1 1.3l.4-.2c.8-.4 1.7-.3 2.4.2.5.4.9 1 1 1.6l.1.5h3.9l.1-.5c.1-.6.5-1.2 1-1.6.7-.5 1.6-.6 2.4-.2l.4.2c.2-.4.2-.9.1-1.3-.2-.6-.6-1-1.2-1.2-.3-.1-.6-.3-.8-.6-.2-.4-.1-.8.2-1 .4-.3.9-.3 1.4-.1 1.1.4 1.9 1.3 2.2 2.5.2.9.1 1.9-.3 2.7l1.7.9c.7.4 1.2 1.1 1.3 1.9.1 1-.4 1.9-1.2 2.4l-.3.2.6 1.2c.3.5.3 1.1.1 1.6-.2.6-.7 1-1.3 1.2l-1 .3.2.9c.1.6-.1 1.2-.5 1.6-.5.5-1.2.7-1.8.5l-1.8-.5c-.4.7-1 1.3-1.7 1.6-1.1.5-2.4.5-3.5 0-.7-.3-1.3-.9-1.7-1.6l-1.8.5c-.6.2-1.3 0-1.8-.5-.4-.4-.6-1-.5-1.6l.2-.9-1-.3c-.6-.2-1.1-.6-1.3-1.2-.2-.5-.2-1.1.1-1.6l.6-1.2-.3-.2c-.8-.5-1.3-1.4-1.2-2.4.1-.8.6-1.5 1.3-1.9l1.7-.9zM12 11c-1.7 0-3 1.3-3 3s1.3 3 3 3 3-1.3 3-3-1.3-3-3-3z"/>
</svg>
