<svg xmlns="http://www.w3.org/2000/svg" viewBox="0 0 32 32" width="32" height="32">
  <circle cx="16" cy="16" r="16" fill="#2775CA"/>
  <path d="M20.022 18.124c0-2.12-1.274-2.852-3.82-3.156-1.82-.24-2.182-.73-2.182-1.58 0-.852.544-1.396 1.638-1.396 1.004 0 1.548.364 1.82 1.276a.39.39 0 0 0 .364.272h.836a.357.357 0 0 0 .364-.364v-.06a2.79 2.79 0 0 0-2.488-2.244v-1.276c0-.212-.152-.364-.394-.394h-.78c-.212 0-.364.152-.394.394v1.216c-1.638.212-2.67 1.336-2.67 2.672 0 1.94 1.214 2.67 3.762 2.974 1.728.304 2.24.668 2.24 1.642 0 .972-.878 1.64-2.06 1.64-1.608 0-2.182-.668-2.364-1.578a.396.396 0 0 0-.364-.304h-.9a.357.357 0 0 0-.364.364v.06c.272 1.458 1.09 2.49 2.914 2.762v1.276c0 .212.152.364.394.394h.78c.212 0 .364-.152.394-.394v-1.276c1.638-.272 2.694-1.396 2.694-2.82z" fill="#fff"/>
  <path d="M12.588 24.338c-4.616-1.64-7.012-6.8-5.342-11.386 .85-2.398 2.732-4.19 5.068-5.04a.333.333 0 0 0 .212-.364v-.758c0-.212-.092-.364-.272-.424-.062 0-.152 0-.212.06C7.164 8.274 4.466 13.738 6.318 18.616a9.344 9.344 0 0 0 5.946 5.64c.212.062.424-.06.484-.272 0-.06.03-.12.03-.182v-.758c0-.152-.122-.334-.272-.394l.082-.312zm7.1-17.896c-.212-.06-.424.062-.484.274 0 .06-.03.12-.03.182v.758c0 .212.152.364.332.424 4.616 1.638 7.012 6.798 5.342 11.384-.85 2.398-2.732 4.19-5.068 5.04a.332.332 0 0 0-.212.364v.758c0 .212.092.364.272.424.06 0 .152 0 .212-.06 4.878-1.85 7.576-7.312 5.726-12.19a9.332 9.332 0 0 0-6.006-5.69l-.084.332z" fill="#fff"/>
</svg>